<?xml version="1.0" encoding="utf-8"?>
<svg xmlns="http://www.w3.org/2000/svg" viewBox="0 0 155 15">
  <defs>
    <clipPath id="fbd9c6743f">
      <rect x="0" width="66" y="0" height="19"/>
    </clipPath>
  </defs>
  <g id="d9999832cb" transform="matrix(1, 0, 0, 1, -14.579966, -19.07967)">
    <g style="fill:#b4b4b4;fill-opacity:1;">
      <g transform="translate(14.504656, 32.243733)">
        <path style="stroke:none" d="M 8.84375 -10.578125 L 8.171875 -9.609375 C 8.171875 -9.609375 8.09375 -9.644531 7.9375 -9.71875 C 7.789062 -9.789062 7.582031 -9.875 7.3125 -9.96875 C 7.039062 -10.070312 6.710938 -10.160156 6.328125 -10.234375 C 5.953125 -10.304688 5.535156 -10.34375 5.078125 -10.34375 C 4.566406 -10.34375 4.113281 -10.28125 3.71875 -10.15625 C 3.332031 -10.03125 3.03125 -9.832031 2.8125 -9.5625 C 2.59375 -9.300781 2.484375 -8.960938 2.484375 -8.546875 C 2.484375 -8.179688 2.585938 -7.875 2.796875 -7.625 C 3.003906 -7.382812 3.316406 -7.171875 3.734375 -6.984375 C 4.148438 -6.804688 4.6875 -6.640625 5.34375 -6.484375 C 6.226562 -6.285156 6.96875 -6.035156 7.5625 -5.734375 C 8.164062 -5.441406 8.617188 -5.070312 8.921875 -4.625 C 9.222656 -4.175781 9.375 -3.625 9.375 -2.96875 C 9.375 -1.9375 9.023438 -1.15625 8.328125 -0.625 C 7.628906 -0.101562 6.644531 0.15625 5.375 0.15625 C 4.769531 0.15625 4.222656 0.113281 3.734375 0.03125 C 3.253906 -0.0390625 2.832031 -0.132812 2.46875 -0.25 C 2.113281 -0.363281 1.816406 -0.476562 1.578125 -0.59375 C 1.335938 -0.71875 1.160156 -0.816406 1.046875 -0.890625 C 0.929688 -0.972656 0.875 -1.015625 0.875 -1.015625 L 1.546875 -1.984375 C 1.546875 -1.984375 1.609375 -1.945312 1.734375 -1.875 C 1.859375 -1.8125 2.039062 -1.726562 2.28125 -1.625 C 2.519531 -1.53125 2.796875 -1.429688 3.109375 -1.328125 C 3.429688 -1.234375 3.78125 -1.148438 4.15625 -1.078125 C 4.539062 -1.015625 4.945312 -0.984375 5.375 -0.984375 C 6.320312 -0.984375 7.007812 -1.15625 7.4375 -1.5 C 7.875 -1.84375 8.09375 -2.332031 8.09375 -2.96875 C 8.09375 -3.34375 8 -3.671875 7.8125 -3.953125 C 7.625 -4.234375 7.3125 -4.476562 6.875 -4.6875 C 6.4375 -4.894531 5.847656 -5.085938 5.109375 -5.265625 C 3.804688 -5.566406 2.828125 -5.972656 2.171875 -6.484375 C 1.515625 -7.003906 1.1875 -7.691406 1.1875 -8.546875 C 1.1875 -9.128906 1.332031 -9.640625 1.625 -10.078125 C 1.925781 -10.523438 2.363281 -10.867188 2.9375 -11.109375 C 3.519531 -11.359375 4.234375 -11.484375 5.078125 -11.484375 C 5.691406 -11.484375 6.234375 -11.4375 6.703125 -11.34375 C 7.171875 -11.25 7.5625 -11.140625 7.875 -11.015625 C 8.195312 -10.898438 8.4375 -10.796875 8.59375 -10.703125 C 8.757812 -10.617188 8.84375 -10.578125 8.84375 -10.578125 Z M 8.84375 -10.578125 "/>
      </g>
    </g>
    <g style="fill:#b4b4b4;fill-opacity:1;">
      <g transform="translate(24.75861, 32.243733)">
        <path style="stroke:none" d=""/>
      </g>
    </g>
    <g style="fill:#b4b4b4;fill-opacity:1;">
      <g transform="translate(29.285207, 32.243733)">
        <path style="stroke:none" d="M 9.84375 0 L 8.421875 -3.4375 L 3.421875 -3.4375 L 2 0 L 0.625 0 L 5.40625 -11.328125 L 6.4375 -11.328125 L 11.21875 0 Z M 5.921875 -9.453125 L 3.890625 -4.578125 L 7.9375 -4.578125 Z M 5.921875 -9.453125 "/>
      </g>
    </g>
    <g style="fill:#b4b4b4;fill-opacity:1;">
      <g transform="translate(41.134923, 32.243733)">
        <path style="stroke:none" d=""/>
      </g>
    </g>
    <g style="fill:#b4b4b4;fill-opacity:1;">
      <g transform="translate(45.66152, 32.243733)">
        <path style="stroke:none" d="M 2.625 -11.328125 L 2.625 -1.140625 L 8.40625 -1.140625 L 8.40625 0 L 1.34375 0 L 1.34375 -11.328125 Z M 2.625 -11.328125 "/>
      </g>
    </g>
    <g style="fill:#b4b4b4;fill-opacity:1;">
      <g transform="translate(55.101799, 32.243733)">
        <path style="stroke:none" d=""/>
      </g>
    </g>
    <g style="fill:#b4b4b4;fill-opacity:1;">
      <g transform="translate(59.628397, 32.243733)">
        <path style="stroke:none" d="M 1.03125 -5.65625 C 1.03125 -6.457031 1.148438 -7.207031 1.390625 -7.90625 C 1.628906 -8.601562 1.984375 -9.21875 2.453125 -9.75 C 2.929688 -10.289062 3.515625 -10.710938 4.203125 -11.015625 C 4.898438 -11.328125 5.703125 -11.484375 6.609375 -11.484375 C 7.515625 -11.484375 8.3125 -11.328125 9 -11.015625 C 9.695312 -10.710938 10.28125 -10.289062 10.75 -9.75 C 11.226562 -9.21875 11.585938 -8.601562 11.828125 -7.90625 C 12.066406 -7.207031 12.1875 -6.457031 12.1875 -5.65625 C 12.1875 -4.863281 12.066406 -4.117188 11.828125 -3.421875 C 11.585938 -2.722656 11.226562 -2.101562 10.75 -1.5625 C 10.28125 -1.03125 9.695312 -0.609375 9 -0.296875 C 8.3125 0.00390625 7.515625 0.15625 6.609375 0.15625 C 5.703125 0.15625 4.898438 0.00390625 4.203125 -0.296875 C 3.515625 -0.609375 2.929688 -1.03125 2.453125 -1.5625 C 1.984375 -2.101562 1.628906 -2.722656 1.390625 -3.421875 C 1.148438 -4.117188 1.03125 -4.863281 1.03125 -5.65625 Z M 10.875 -5.65625 C 10.875 -6.300781 10.785156 -6.90625 10.609375 -7.46875 C 10.441406 -8.039062 10.179688 -8.539062 9.828125 -8.96875 C 9.472656 -9.394531 9.023438 -9.726562 8.484375 -9.96875 C 7.953125 -10.21875 7.328125 -10.34375 6.609375 -10.34375 C 5.890625 -10.34375 5.257812 -10.21875 4.71875 -9.96875 C 4.1875 -9.726562 3.742188 -9.394531 3.390625 -8.96875 C 3.035156 -8.539062 2.769531 -8.039062 2.59375 -7.46875 C 2.425781 -6.90625 2.34375 -6.300781 2.34375 -5.65625 C 2.34375 -5.019531 2.425781 -4.414062 2.59375 -3.84375 C 2.769531 -3.28125 3.035156 -2.785156 3.390625 -2.359375 C 3.742188 -1.929688 4.1875 -1.59375 4.71875 -1.34375 C 5.257812 -1.101562 5.890625 -0.984375 6.609375 -0.984375 C 7.328125 -0.984375 7.953125 -1.101562 8.484375 -1.34375 C 9.023438 -1.59375 9.472656 -1.929688 9.828125 -2.359375 C 10.179688 -2.785156 10.441406 -3.28125 10.609375 -3.84375 C 10.785156 -4.414062 10.875 -5.019531 10.875 -5.65625 Z M 10.875 -5.65625 "/>
      </g>
    </g>
    <g style="fill:#b4b4b4;fill-opacity:1;">
      <g transform="translate(72.852679, 32.243733)">
        <path style="stroke:none" d=""/>
      </g>
    </g>
    <g style="fill:#b4b4b4;fill-opacity:1;">
      <g transform="translate(77.379276, 32.243733)">
        <path style="stroke:none" d="M 1.34375 0 L 1.34375 -11.328125 L 2.84375 -11.328125 L 9.015625 -1.890625 L 9.015625 -11.328125 L 10.296875 -11.328125 L 10.296875 0 L 8.796875 0 L 2.625 -9.4375 L 2.625 0 Z M 1.34375 0 "/>
      </g>
    </g>
    <g style="fill:#b4b4b4;fill-opacity:1;">
      <g transform="translate(89.023597, 32.243733)">
        <path style="stroke:none" d=""/>
      </g>
    </g>
    <g style="fill:#b4b4b4;fill-opacity:1;">
      <g transform="translate(93.550194, 32.243733)">
        <path style="stroke:none" d="M 8.84375 -10.578125 L 8.171875 -9.609375 C 8.171875 -9.609375 8.09375 -9.644531 7.9375 -9.71875 C 7.789062 -9.789062 7.582031 -9.875 7.3125 -9.96875 C 7.039062 -10.070312 6.710938 -10.160156 6.328125 -10.234375 C 5.953125 -10.304688 5.535156 -10.34375 5.078125 -10.34375 C 4.566406 -10.34375 4.113281 -10.28125 3.71875 -10.15625 C 3.332031 -10.03125 3.03125 -9.832031 2.8125 -9.5625 C 2.59375 -9.300781 2.484375 -8.960938 2.484375 -8.546875 C 2.484375 -8.179688 2.585938 -7.875 2.796875 -7.625 C 3.003906 -7.382812 3.316406 -7.171875 3.734375 -6.984375 C 4.148438 -6.804688 4.6875 -6.640625 5.34375 -6.484375 C 6.226562 -6.285156 6.96875 -6.035156 7.5625 -5.734375 C 8.164062 -5.441406 8.617188 -5.070312 8.921875 -4.625 C 9.222656 -4.175781 9.375 -3.625 9.375 -2.96875 C 9.375 -1.9375 9.023438 -1.15625 8.328125 -0.625 C 7.628906 -0.101562 6.644531 0.15625 5.375 0.15625 C 4.769531 0.15625 4.222656 0.113281 3.734375 0.03125 C 3.253906 -0.0390625 2.832031 -0.132812 2.46875 -0.25 C 2.113281 -0.363281 1.816406 -0.476562 1.578125 -0.59375 C 1.335938 -0.71875 1.160156 -0.816406 1.046875 -0.890625 C 0.929688 -0.972656 0.875 -1.015625 0.875 -1.015625 L 1.546875 -1.984375 C 1.546875 -1.984375 1.609375 -1.945312 1.734375 -1.875 C 1.859375 -1.8125 2.039062 -1.726562 2.28125 -1.625 C 2.519531 -1.53125 2.796875 -1.429688 3.109375 -1.328125 C 3.429688 -1.234375 3.78125 -1.148438 4.15625 -1.078125 C 4.539062 -1.015625 4.945312 -0.984375 5.375 -0.984375 C 6.320312 -0.984375 7.007812 -1.15625 7.4375 -1.5 C 7.875 -1.84375 8.09375 -2.332031 8.09375 -2.96875 C 8.09375 -3.34375 8 -3.671875 7.8125 -3.953125 C 7.625 -4.234375 7.3125 -4.476562 6.875 -4.6875 C 6.4375 -4.894531 5.847656 -5.085938 5.109375 -5.265625 C 3.804688 -5.566406 2.828125 -5.972656 2.171875 -6.484375 C 1.515625 -7.003906 1.1875 -7.691406 1.1875 -8.546875 C 1.1875 -9.128906 1.332031 -9.640625 1.625 -10.078125 C 1.925781 -10.523438 2.363281 -10.867188 2.9375 -11.109375 C 3.519531 -11.359375 4.234375 -11.484375 5.078125 -11.484375 C 5.691406 -11.484375 6.234375 -11.4375 6.703125 -11.34375 C 7.171875 -11.25 7.5625 -11.140625 7.875 -11.015625 C 8.195312 -10.898438 8.4375 -10.796875 8.59375 -10.703125 C 8.757812 -10.617188 8.84375 -10.578125 8.84375 -10.578125 Z M 8.84375 -10.578125 "/>
      </g>
    </g>
    <g transform="matrix(1,0,0,1,104,18)">
      <g clip-path="url(#fbd9c6743f)">
        <g style="fill:#7b7b7b;fill-opacity:1;">
          <g transform="translate(0.952585, 13.98766)">
            <path style="stroke:none" d="M 1.328125 -0.625 C 1.222656 -0.6875 1.171875 -0.769531 1.171875 -0.875 C 1.171875 -0.9375 1.191406 -1.007812 1.234375 -1.09375 L 1.609375 -1.96875 C 1.628906 -2.007812 1.65625 -2.046875 1.6875 -2.078125 C 1.726562 -2.109375 1.78125 -2.125 1.84375 -2.125 C 1.882812 -2.125 1.941406 -2.101562 2.015625 -2.0625 C 2.492188 -1.84375 2.976562 -1.695312 3.46875 -1.625 C 3.957031 -1.5625 4.398438 -1.53125 4.796875 -1.53125 C 5.515625 -1.53125 6.035156 -1.59375 6.359375 -1.71875 C 6.691406 -1.84375 6.898438 -2.015625 6.984375 -2.234375 C 7.078125 -2.453125 7.125 -2.675781 7.125 -2.90625 C 7.125 -3.320312 6.972656 -3.65625 6.671875 -3.90625 C 6.367188 -4.15625 5.984375 -4.363281 5.515625 -4.53125 C 5.054688 -4.695312 4.566406 -4.863281 4.046875 -5.03125 C 3.523438 -5.207031 3.03125 -5.414062 2.5625 -5.65625 C 2.09375 -5.894531 1.707031 -6.207031 1.40625 -6.59375 C 1.113281 -6.988281 0.96875 -7.492188 0.96875 -8.109375 C 0.96875 -8.835938 1.132812 -9.421875 1.46875 -9.859375 C 1.8125 -10.304688 2.265625 -10.632812 2.828125 -10.84375 C 3.398438 -11.050781 4.023438 -11.15625 4.703125 -11.15625 C 5.316406 -11.15625 5.820312 -11.117188 6.21875 -11.046875 C 6.613281 -10.984375 7.03125 -10.859375 7.46875 -10.671875 C 7.53125 -10.648438 7.566406 -10.617188 7.578125 -10.578125 C 7.597656 -10.535156 7.609375 -10.492188 7.609375 -10.453125 C 7.609375 -10.410156 7.601562 -10.367188 7.59375 -10.328125 C 7.582031 -10.285156 7.570312 -10.253906 7.5625 -10.234375 L 7.21875 -9.4375 C 7.164062 -9.34375 7.09375 -9.296875 7 -9.296875 C 6.96875 -9.296875 6.914062 -9.300781 6.84375 -9.3125 C 6.769531 -9.320312 6.710938 -9.332031 6.671875 -9.34375 C 6.421875 -9.40625 6.15625 -9.445312 5.875 -9.46875 C 5.59375 -9.5 5.28125 -9.515625 4.9375 -9.515625 C 4.226562 -9.515625 3.671875 -9.425781 3.265625 -9.25 C 2.867188 -9.082031 2.671875 -8.722656 2.671875 -8.171875 C 2.671875 -7.835938 2.78125 -7.5625 3 -7.34375 C 3.21875 -7.132812 3.507812 -6.953125 3.875 -6.796875 C 4.238281 -6.648438 4.640625 -6.507812 5.078125 -6.375 C 5.515625 -6.238281 5.953125 -6.082031 6.390625 -5.90625 C 6.828125 -5.738281 7.226562 -5.53125 7.59375 -5.28125 C 7.957031 -5.039062 8.25 -4.726562 8.46875 -4.34375 C 8.6875 -3.957031 8.796875 -3.484375 8.796875 -2.921875 C 8.796875 -2.691406 8.757812 -2.40625 8.6875 -2.0625 C 8.613281 -1.726562 8.441406 -1.394531 8.171875 -1.0625 C 7.910156 -0.726562 7.503906 -0.445312 6.953125 -0.21875 C 6.410156 0 5.664062 0.109375 4.71875 0.109375 C 4.71875 0.109375 4.609375 0.0976562 4.390625 0.078125 C 4.171875 0.0664062 3.890625 0.0390625 3.546875 0 C 3.210938 -0.0390625 2.847656 -0.113281 2.453125 -0.21875 C 2.054688 -0.320312 1.679688 -0.457031 1.328125 -0.625 Z M 1.328125 -0.625 "/>
          </g>
        </g>
        <g style="fill:#7b7b7b;fill-opacity:1;">
          <g transform="translate(10.623706, 13.98766)">
            <path style="stroke:none" d=""/>
          </g>
        </g>
        <g style="fill:#7b7b7b;fill-opacity:1;">
          <g transform="translate(14.110217, 13.98766)">
            <path style="stroke:none" d="M 6.71875 -2.140625 L 5.625 -2.140625 C 5.539062 -2.140625 5.472656 -2.164062 5.421875 -2.21875 C 5.378906 -2.269531 5.347656 -2.3125 5.328125 -2.34375 L 2.921875 -7.1875 L 2.921875 -0.3125 C 2.921875 -0.207031 2.882812 -0.128906 2.8125 -0.078125 C 2.75 -0.0234375 2.679688 0 2.609375 0 L 1.546875 0 C 1.472656 0 1.398438 -0.0234375 1.328125 -0.078125 C 1.265625 -0.128906 1.234375 -0.207031 1.234375 -0.3125 L 1.234375 -10.734375 C 1.234375 -10.835938 1.265625 -10.914062 1.328125 -10.96875 C 1.398438 -11.019531 1.472656 -11.046875 1.546875 -11.046875 L 2.53125 -11.046875 C 2.59375 -11.046875 2.664062 -11.015625 2.75 -10.953125 C 2.84375 -10.898438 2.914062 -10.828125 2.96875 -10.734375 L 6.171875 -4.328125 L 9.375 -10.734375 C 9.425781 -10.828125 9.492188 -10.898438 9.578125 -10.953125 C 9.671875 -11.015625 9.75 -11.046875 9.8125 -11.046875 L 10.796875 -11.046875 C 10.867188 -11.046875 10.9375 -11.019531 11 -10.96875 C 11.070312 -10.914062 11.109375 -10.835938 11.109375 -10.734375 L 11.109375 -0.3125 C 11.109375 -0.207031 11.070312 -0.128906 11 -0.078125 C 10.9375 -0.0234375 10.867188 0 10.796875 0 L 9.734375 0 C 9.660156 0 9.585938 -0.0234375 9.515625 -0.078125 C 9.453125 -0.128906 9.421875 -0.207031 9.421875 -0.3125 L 9.421875 -7.1875 L 7.015625 -2.34375 C 7.003906 -2.3125 6.972656 -2.269531 6.921875 -2.21875 C 6.878906 -2.164062 6.8125 -2.140625 6.71875 -2.140625 Z M 6.71875 -2.140625 "/>
          </g>
        </g>
        <g style="fill:#7b7b7b;fill-opacity:1;">
          <g transform="translate(26.444397, 13.98766)">
            <path style="stroke:none" d=""/>
          </g>
        </g>
        <g style="fill:#7b7b7b;fill-opacity:1;">
          <g transform="translate(29.930908, 13.98766)">
            <path style="stroke:none" d="M 6.4375 -10.796875 L 9.65625 -0.3125 C 9.65625 -0.207031 9.617188 -0.128906 9.546875 -0.078125 C 9.484375 -0.0234375 9.414062 0 9.34375 0 L 8.234375 0 C 8.085938 0 7.972656 -0.101562 7.890625 -0.3125 L 7.359375 -2.046875 L 2.921875 -2.046875 L 2.390625 -0.3125 C 2.304688 -0.101562 2.1875 0 2.03125 0 L 0.921875 0 C 0.859375 0 0.789062 -0.0234375 0.71875 -0.078125 C 0.644531 -0.128906 0.609375 -0.207031 0.609375 -0.3125 L 3.84375 -10.796875 C 3.894531 -10.960938 4 -11.046875 4.15625 -11.046875 L 6.125 -11.046875 C 6.269531 -11.046875 6.375 -10.960938 6.4375 -10.796875 Z M 3.4375 -3.6875 L 6.859375 -3.6875 L 5.140625 -9.203125 Z M 3.4375 -3.6875 "/>
          </g>
        </g>
        <g style="fill:#7b7b7b;fill-opacity:1;">
          <g transform="translate(40.197714, 13.98766)">
            <path style="stroke:none" d=""/>
          </g>
        </g>
        <g style="fill:#7b7b7b;fill-opacity:1;">
          <g transform="translate(43.684225, 13.98766)">
            <path style="stroke:none" d="M 6.546875 -0.265625 L 5.421875 -2.765625 C 5.296875 -2.753906 5.164062 -2.742188 5.03125 -2.734375 C 4.90625 -2.734375 4.769531 -2.734375 4.625 -2.734375 L 2.921875 -2.734375 L 2.921875 -0.3125 C 2.921875 -0.207031 2.882812 -0.128906 2.8125 -0.078125 C 2.75 -0.0234375 2.679688 0 2.609375 0 L 1.546875 0 C 1.472656 0 1.398438 -0.0234375 1.328125 -0.078125 C 1.265625 -0.128906 1.234375 -0.207031 1.234375 -0.3125 L 1.234375 -10.734375 C 1.234375 -10.835938 1.265625 -10.914062 1.328125 -10.96875 C 1.398438 -11.019531 1.472656 -11.046875 1.546875 -11.046875 L 4.625 -11.046875 C 5.425781 -11.046875 6.082031 -10.929688 6.59375 -10.703125 C 7.101562 -10.484375 7.5 -10.203125 7.78125 -9.859375 C 8.070312 -9.523438 8.28125 -9.179688 8.40625 -8.828125 C 8.539062 -8.472656 8.625 -8.15625 8.65625 -7.875 C 8.6875 -7.59375 8.703125 -7.40625 8.703125 -7.3125 L 8.703125 -6.484375 C 8.703125 -6.398438 8.6875 -6.234375 8.65625 -5.984375 C 8.632812 -5.734375 8.570312 -5.441406 8.46875 -5.109375 C 8.375 -4.773438 8.207031 -4.441406 7.96875 -4.109375 C 7.726562 -3.785156 7.398438 -3.503906 6.984375 -3.265625 L 8.3125 -0.3125 C 8.3125 -0.207031 8.273438 -0.128906 8.203125 -0.078125 C 8.128906 -0.0234375 8.0625 0 8 0 L 6.9375 0 C 6.875 0 6.800781 -0.0195312 6.71875 -0.0625 C 6.644531 -0.101562 6.585938 -0.171875 6.546875 -0.265625 Z M 4.59375 -9.34375 L 2.921875 -9.34375 L 2.921875 -4.4375 L 4.59375 -4.4375 C 4.769531 -4.4375 4.988281 -4.457031 5.25 -4.5 C 5.519531 -4.539062 5.785156 -4.632812 6.046875 -4.78125 C 6.316406 -4.925781 6.539062 -5.148438 6.71875 -5.453125 C 6.90625 -5.765625 7 -6.195312 7 -6.75 L 7 -7.0625 C 7 -7.613281 6.90625 -8.039062 6.71875 -8.34375 C 6.539062 -8.644531 6.316406 -8.867188 6.046875 -9.015625 C 5.785156 -9.160156 5.519531 -9.25 5.25 -9.28125 C 4.988281 -9.320312 4.769531 -9.34375 4.59375 -9.34375 Z M 4.59375 -9.34375 "/>
          </g>
        </g>
        <g style="fill:#7b7b7b;fill-opacity:1;">
          <g transform="translate(53.075018, 13.98766)">
            <path style="stroke:none" d=""/>
          </g>
        </g>
        <g style="fill:#7b7b7b;fill-opacity:1;">
          <g transform="translate(56.561529, 13.98766)">
            <path style="stroke:none" d="M 1.015625 -11.046875 L 7.90625 -11.046875 C 8.007812 -11.046875 8.085938 -11.007812 8.140625 -10.9375 C 8.191406 -10.863281 8.21875 -10.796875 8.21875 -10.734375 L 8.21875 -9.65625 C 8.21875 -9.582031 8.191406 -9.507812 8.140625 -9.4375 C 8.085938 -9.375 8.007812 -9.34375 7.90625 -9.34375 L 5.3125 -9.34375 L 5.3125 -0.3125 C 5.3125 -0.207031 5.273438 -0.128906 5.203125 -0.078125 C 5.140625 -0.0234375 5.070312 0 5 0 L 3.921875 0 C 3.859375 0 3.789062 -0.0234375 3.71875 -0.078125 C 3.644531 -0.128906 3.609375 -0.207031 3.609375 -0.3125 L 3.609375 -9.34375 L 1.015625 -9.34375 C 0.910156 -9.34375 0.832031 -9.375 0.78125 -9.4375 C 0.726562 -9.507812 0.703125 -9.582031 0.703125 -9.65625 L 0.703125 -10.734375 C 0.703125 -10.796875 0.726562 -10.863281 0.78125 -10.9375 C 0.832031 -11.007812 0.910156 -11.046875 1.015625 -11.046875 Z M 1.015625 -11.046875 "/>
          </g>
        </g>
      </g>
    </g>
  </g>
</svg>