<?xml version="1.0" encoding="utf-8"?>
<svg xmlns="http://www.w3.org/2000/svg" viewBox="0 0 200 55" xmlns:bx="https://boxy-svg.com">
  <defs>
    <filter id="invert-filter-0" bx:preset="invert 1 1" color-interpolation-filters="sRGB" x="-50%" y="-50%" width="200%" height="200%">
      <feComponentTransfer>
        <feFuncR type="table" tableValues="1 0"/>
        <feFuncG type="table" tableValues="1 0"/>
        <feFuncB type="table" tableValues="1 0"/>
      </feComponentTransfer>
    </filter>
  </defs>
  <g transform="matrix(1, 0, 0, 1, -150, -222.499985)">
    <g data-v-0dd9719b="" fill="#ffffff" class="iconlettersvg-g iconlettersvg" transform="matrix(1, 0, 0, 1, 151.263184, 224.026169)" style="filter: url(&quot;#invert-filter-0&quot;);">
      <g>
        <g class="tp-name" transform="translate(0,0)">
          <g transform="scale(1)">
            <g transform="translate(0, 0)">
              <g class="name-imagesvg">
                <g>
                  <rect stroke-width="2" x="0" y="0" width="37.504915755688494" height="37.791652974038776" class="image-rect" style="paint-order: stroke markers; fill-opacity: 0;"/>
                  <svg x="0" y="0" width="37.504915755688494" height="37.791652974038776" filtersec="colorsb2642061626" class="image-svg-svg primary" style="overflow: visible;">
                    <svg xmlns="http://www.w3.org/2000/svg" viewBox="0 0 103.98 104.73">
                      <title>资源 14</title>
                      <path d="M78.21 40.3h-46a6.59 6.59 0 0 1 0-13.18h19l-25-25-1 .3A12.44 12.44 0 0 0 23 3a32.19 32.19 0 0 0 9.25 63H71a6.6 6.6 0 0 1 0 13.19H.15v25.47H71A32 32 0 0 0 101.73 82a32.64 32.64 0 0 0 0-18.58S95.91 41.21 78.21 40.3z" fill="#ffffff"/>
                      <path d="M63.83 25.47H104V0H38.36z" fill="#ffffff"/>
                    </svg>
                  </svg>
                </g>
              </g>
            </g>
            <g transform="translate(37.504915755688494, 0)">
              <g class="name-imagesvg">
                <g>
                  <rect fill-opacity="0" stroke-width="2" x="0" y="0" width="37.73657859732854" height="37.791652974038776" class="image-rect" style=""/>
                  <svg x="0" y="0" width="37.73657859732854" height="37.791652974038776" filtersec="colorsb355627118" class="image-svg-svg primary" style="overflow: visible;">
                    <svg xmlns="http://www.w3.org/2000/svg" viewBox="0 0 102.78 102.93">
                      <title>资源 20</title>
                      <path d="M.15 102.93h25.47V69.22L.15 43.75z" fill="#ffffff"/>
                      <path d="M102.78 102.93V0H99L51.54 47.5 4 0H0v32.06l25.47 25.47L51.39 83.6l25.92-26.07v45.4z" fill="#ffffff"/>
                    </svg>
                  </svg>
                </g>
              </g>
            </g>
            <g transform="translate(75.24149435301703, 0)">
              <g class="name-imagesvg">
                <g>
                  <rect fill-opacity="0" stroke-width="2" x="0" y="0" width="45.83427029800099" height="37.791652974038776" class="image-rect" style=""/>
                  <svg x="0" y="0" width="45.83427029800099" height="37.791652974038776" filtersec="colorsb4720575653" class="image-svg-svg primary" style="overflow: visible;">
                    <svg xmlns="http://www.w3.org/2000/svg" viewBox="0 0 127.2 104.88">
                      <title>资源 1</title>
                      <path d="M44.05 32.36L0 104.73h29.82l29.06-47.79z" fill="#ffffff"/>
                      <path d="M97.39 104.88h29.81L63.68 0 48.84 24.42l42.41 70.27z" fill="#ffffff"/>
                    </svg>
                  </svg>
                </g>
              </g>
            </g>
            <g transform="translate(121.07576465101802, 0)">
              <g class="name-imagesvg">
                <g>
                  <rect fill-opacity="0" stroke-width="2" x="0" y="0" width="38.60621657473963" height="37.791652974038776" class="image-rect" style=""/>
                  <svg x="0" y="0" width="38.60621657473963" height="37.791652974038776" filtersec="colorsb4879661123" class="image-svg-svg primary" style="overflow: visible;">
                    <svg xmlns="http://www.w3.org/2000/svg" viewBox="0 0 105.15 102.93">
                      <title>资源 2</title>
                      <path d="M.3 102.63h25.47V74.31L.3 48.84z" fill="#ffffff"/>
                      <path d="M67.12 64.13h.3a31.68 31.68 0 0 0 21.88-9.29 32 32 0 0 0 9.29-21.58 23.5 23.5 0 0 0 .15-3.14 27.6 27.6 0 0 0-.9-7A30.58 30.58 0 0 0 89.9 8.84 30.13 30.13 0 0 0 74.61.6a26.09 26.09 0 0 0-5.84-.6H0v37.61l25.47 25.47v-.15L65 102.33l.59.6h39.56l-39.38-38.8zm-3-25.62l-.15.3H39.55L27.42 26.67h44.65l.45 1.33a2 2 0 0 1 .15.9v.9a10.44 10.44 0 0 1-.75 3.74l-.45.9a.53.53 0 0 1-.15.45l-.45.45-.45.45a8.94 8.94 0 0 1-3.15 2.1l-1.35.45a7.2 7.2 0 0 1-1.79.17z" fill="#ffffff"/>
                    </svg>
                  </svg>
                </g>
              </g>
            </g>
            <g transform="translate(159.68198122575765, 0)">
              <g class="name-imagesvg">
                <g>
                  <rect fill-opacity="0" stroke-width="2" x="0" y="0" width="37.79165017283962" height="37.791652974038776" class="image-rect" style=""/>
                  <svg x="0" y="0" width="37.79165017283962" height="37.791652974038776" filtersec="colorsb497873374" class="image-svg-svg primary" style="overflow: visible;">
                    <svg xmlns="http://www.w3.org/2000/svg" viewBox="0 0 102.93 102.93">
                      <title>资源 7</title>
                      <path d="M38.66 102.93h25.47V75.06L38.66 49.59z" fill="#ffffff"/>
                      <path d="M0 25.47h38.66v12.44l25.47 25.47V25.47h38.8V0H0z" fill="#ffffff"/>
                    </svg>
                  </svg>
                </g>
              </g>
            </g>
          </g>
        </g>
      </g>
      <g data-gra="path-slogan" fill-rule="" class="tp-slogan" fill="#ffffff" transform="translate(78.92181587219238,43.791908264160156)">
        <g transform="scale(1, 1)">
          <g transform="scale(1)">
            <path d="M1.10-1.72L0.50-1.02C0.85-0.66 1.26-0.38 1.73-0.17C2.20 0.04 2.71 0.14 3.26 0.14C3.68 0.14 4.05 0.09 4.38-0.03C4.71-0.15 4.99-0.31 5.22-0.51C5.45-0.71 5.63-0.95 5.75-1.22C5.88-1.50 5.94-1.79 5.94-2.10C5.94-2.39 5.90-2.64 5.81-2.86C5.73-3.08 5.62-3.27 5.47-3.44C5.33-3.60 5.16-3.75 4.96-3.87C4.76-3.99 4.54-4.10 4.32-4.20L3.20-4.68C3.04-4.74 2.89-4.81 2.74-4.89C2.58-4.97 2.44-5.05 2.32-5.15C2.19-5.25 2.09-5.37 2.01-5.50C1.93-5.63 1.90-5.80 1.90-5.99C1.90-6.35 2.03-6.63 2.30-6.83C2.57-7.04 2.92-7.14 3.36-7.14C3.73-7.14 4.06-7.07 4.35-6.94C4.64-6.81 4.91-6.63 5.15-6.40L5.69-7.04C5.41-7.33 5.07-7.57 4.67-7.75C4.27-7.93 3.83-8.02 3.36-8.02C3-8.02 2.67-7.96 2.37-7.86C2.07-7.76 1.81-7.61 1.59-7.42C1.37-7.23 1.20-7.01 1.07-6.76C0.95-6.50 0.89-6.22 0.89-5.93C0.89-5.64 0.94-5.39 1.03-5.17C1.13-4.95 1.25-4.76 1.40-4.60C1.56-4.44 1.73-4.30 1.92-4.19C2.11-4.08 2.30-3.98 2.48-3.90L3.61-3.41C3.80-3.32 3.97-3.24 4.13-3.16C4.29-3.08 4.43-2.99 4.54-2.89C4.66-2.79 4.75-2.67 4.82-2.53C4.89-2.39 4.92-2.22 4.92-2.02C4.92-1.63 4.78-1.32 4.49-1.09C4.20-0.85 3.80-0.73 3.28-0.73C2.87-0.73 2.47-0.82 2.09-1.00C1.71-1.18 1.38-1.42 1.10-1.72ZM10.84-3.20L8.47-3.20L8.84-4.40C8.99-4.84 9.12-5.28 9.25-5.72C9.38-6.15 9.50-6.60 9.62-7.06L9.67-7.06C9.80-6.60 9.93-6.15 10.06-5.72C10.18-5.28 10.32-4.84 10.46-4.40ZM11.09-2.40L11.83 0L12.90 0L10.24-7.87L9.11-7.87L6.44 0L7.46 0L8.22-2.40ZM14.02-7.87L14.02 0L18.46 0L18.46-0.85L15.01-0.85L15.01-7.87ZM22.44 0.14C22.94 0.14 23.39 0.05 23.80-0.14C24.21-0.34 24.57-0.61 24.87-0.97C25.17-1.32 25.40-1.75 25.57-2.26C25.73-2.77 25.81-3.34 25.81-3.97C25.81-4.60 25.73-5.16 25.57-5.66C25.40-6.16 25.17-6.58 24.87-6.93C24.57-7.28 24.21-7.55 23.80-7.73C23.39-7.92 22.94-8.02 22.44-8.02C21.94-8.02 21.49-7.92 21.08-7.74C20.67-7.56 20.31-7.29 20.02-6.94C19.72-6.59 19.49-6.17 19.33-5.67C19.16-5.17 19.08-4.60 19.08-3.97C19.08-3.34 19.16-2.77 19.33-2.26C19.49-1.75 19.72-1.32 20.02-0.97C20.31-0.61 20.67-0.34 21.08-0.14C21.49 0.05 21.94 0.14 22.44 0.14ZM22.44-0.73C22.09-0.73 21.77-0.81 21.49-0.96C21.20-1.11 20.96-1.33 20.75-1.61C20.55-1.90 20.39-2.24 20.28-2.63C20.17-3.03 20.11-3.48 20.11-3.97C20.11-4.46 20.17-4.90 20.28-5.29C20.39-5.68 20.55-6.02 20.75-6.29C20.96-6.56 21.20-6.77 21.49-6.92C21.77-7.07 22.09-7.14 22.44-7.14C22.79-7.14 23.11-7.07 23.39-6.92C23.68-6.77 23.92-6.56 24.13-6.29C24.33-6.02 24.49-5.68 24.60-5.29C24.71-4.90 24.77-4.46 24.77-3.97C24.77-3.48 24.71-3.03 24.60-2.63C24.49-2.24 24.33-1.90 24.13-1.61C23.92-1.33 23.68-1.11 23.39-0.96C23.11-0.81 22.79-0.73 22.44-0.73ZM27.50-7.87L27.50 0L28.45 0L28.45-4.12C28.45-4.53 28.44-4.95 28.41-5.36C28.38-5.77 28.35-6.18 28.32-6.58L28.37-6.58L29.22-4.96L32.08 0L33.11 0L33.11-7.87L32.16-7.87L32.16-3.80C32.16-3.39 32.17-2.97 32.20-2.54C32.23-2.11 32.26-1.70 32.28-1.30L32.23-1.30L31.38-2.93L28.54-7.87ZM35.29-1.72L34.69-1.02C35.04-0.66 35.44-0.38 35.92-0.17C36.39 0.04 36.90 0.14 37.45 0.14C37.87 0.14 38.24 0.09 38.57-0.03C38.90-0.15 39.18-0.31 39.41-0.51C39.64-0.71 39.82-0.95 39.94-1.22C40.07-1.50 40.13-1.79 40.13-2.10C40.13-2.39 40.09-2.64 40.00-2.86C39.92-3.08 39.80-3.27 39.66-3.44C39.52-3.60 39.34-3.75 39.14-3.87C38.94-3.99 38.73-4.10 38.51-4.20L37.39-4.68C37.23-4.74 37.08-4.81 36.92-4.89C36.77-4.97 36.63-5.05 36.50-5.15C36.38-5.25 36.27-5.37 36.20-5.50C36.12-5.63 36.08-5.80 36.08-5.99C36.08-6.35 36.22-6.63 36.49-6.83C36.75-7.04 37.11-7.14 37.55-7.14C37.92-7.14 38.25-7.07 38.54-6.94C38.83-6.81 39.10-6.63 39.34-6.40L39.88-7.04C39.60-7.33 39.26-7.57 38.86-7.75C38.46-7.93 38.02-8.02 37.55-8.02C37.19-8.02 36.86-7.96 36.56-7.86C36.26-7.76 36.00-7.61 35.78-7.42C35.56-7.23 35.39-7.01 35.26-6.76C35.14-6.50 35.08-6.22 35.08-5.93C35.08-5.64 35.12-5.39 35.22-5.17C35.32-4.95 35.44-4.76 35.59-4.60C35.74-4.44 35.92-4.30 36.11-4.19C36.30-4.08 36.49-3.98 36.67-3.90L37.80-3.41C37.98-3.32 38.16-3.24 38.32-3.16C38.48-3.08 38.61-2.99 38.73-2.89C38.85-2.79 38.94-2.67 39.01-2.53C39.07-2.39 39.11-2.22 39.11-2.02C39.11-1.63 38.96-1.32 38.68-1.09C38.39-0.85 37.98-0.73 37.46-0.73C37.06-0.73 36.66-0.82 36.28-1.00C35.90-1.18 35.57-1.42 35.29-1.72Z" transform="translate(-0.504, 8.016)" style=""/>
          </g>
        </g>
      </g>
    </g>
  </g>
</svg>